<svg width="13" height="13" viewBox="0 0 13 13" fill="none" xmlns="http://www.w3.org/2000/svg">
<g clip-path="url(#clip0_89_68)">
<path d="M1.47649 12.7563C1.77226 12.8827 2.09927 12.917 2.41485 12.8548C2.73042 12.7925 3.01992 12.6366 3.24557 12.4074L6.43328 9.23704L9.62099 12.4074C9.76962 12.5582 9.94669 12.678 10.1419 12.76C10.3372 12.8419 10.5468 12.8842 10.7585 12.8846C10.9761 12.884 11.1915 12.8404 11.3922 12.7563C11.6904 12.6356 11.9453 12.4278 12.1236 12.16C12.3019 11.8923 12.3953 11.577 12.3916 11.2553V2.70833C12.3908 1.9903 12.1051 1.30193 11.5974 0.794202C11.0897 0.286478 10.4013 0.00086009 9.68328 0L3.18328 0C2.46525 0.00086009 1.77688 0.286478 1.26915 0.794202C0.761426 1.30193 0.475808 1.9903 0.474948 2.70833V11.2553C0.471452 11.5772 0.565177 11.8927 0.743866 12.1605C0.922555 12.4283 1.17789 12.6359 1.47649 12.7563Z" fill="#E6F7F2"/>
</g>
<defs>
<clipPath id="clip0_89_68">
<rect width="13" height="13" fill="white"/>
</clipPath>
</defs>
</svg>
