<svg width="6" height="6" viewBox="0 0 6 6" fill="none" xmlns="http://www.w3.org/2000/svg">
<g clip-path="url(#clip0_13_868)">
<path d="M0.876999 4.00775L3.2615 5.75625C3.44774 5.89263 3.66811 5.97477 3.89818 5.99357C4.12825 6.01237 4.35904 5.9671 4.56495 5.86277C4.77087 5.75844 4.94387 5.59913 5.06479 5.4025C5.1857 5.20586 5.24981 4.97959 5.25 4.74875L5.25 1.25C5.25036 1.01894 5.18659 0.792305 5.06579 0.595335C4.94499 0.398365 4.77189 0.238781 4.56578 0.13435C4.35966 0.0299176 4.1286 -0.015266 3.89833 0.00382793C3.66806 0.0229219 3.4476 0.105544 3.2615 0.242498L0.876999 1.991C0.718779 2.10711 0.590122 2.25885 0.501442 2.43392C0.412763 2.609 0.366553 2.80249 0.366553 2.99875C0.366553 3.195 0.412763 3.3885 0.501442 3.56357C0.590121 3.73865 0.718779 3.89039 0.876999 4.0065L0.876999 4.00775Z" fill="#03AA77"/>
</g>
<defs>
<clipPath id="clip0_13_868">
<rect width="6" height="6" fill="white" transform="translate(6 6) rotate(-180)"/>
</clipPath>
</defs>
</svg>
