<svg width="28" height="28" viewBox="0 0 28 28" fill="none" xmlns="http://www.w3.org/2000/svg">
<path d="M25.655 11.6783V22.1667C25.655 25.3867 23.0416 28 19.8216 28H8.16665C6.61498 28 5.14498 27.3933 4.03665 26.2967C2.93998 25.2 2.33331 23.73 2.33331 22.1667V11.6667C2.33331 8.44667 4.94665 5.83333 8.16665 5.83333C8.16665 5.83333 10.3483 5.83333 12.8333 5.83333V18.0017L8.97165 14.3267C8.50498 13.8833 7.76998 13.895 7.32665 14.3617C6.88331 14.8283 6.89498 15.5633 7.37331 16.0067L11.5383 19.9733C12.2266 20.6617 13.125 21 14.0233 21C14.9216 21 15.7966 20.6617 16.4733 19.9967L20.6616 16.0183C21.1283 15.575 21.1516 14.84 20.7083 14.3733C20.265 13.9067 19.53 13.8833 19.0633 14.3383L15.2016 18.0133V5.83333C17.675 5.83333 19.8566 5.83333 19.8683 5.83333C21.42 5.83333 22.89 6.44 23.9866 7.53667C25.095 8.63333 25.7016 10.1033 25.7016 11.6667L25.655 11.6783ZM15.1666 1.16667C15.1666 0.525 14.6416 0 14 0C13.3583 0 12.8333 0.525 12.8333 1.16667V5.83333C13.6033 5.83333 14.3966 5.83333 15.1666 5.83333V1.16667Z" fill="#03AA77"/>
</svg>
