<svg width="18" height="18" viewBox="0 0 18 18" fill="none" xmlns="http://www.w3.org/2000/svg">
<g clip-path="url(#clip0_94_148)">
<path d="M18 5.25V6.75C18 7.164 17.664 7.5 17.25 7.5C16.836 7.5 16.5 7.164 16.5 6.75V5.25C16.5 4.42275 15.8273 3.75 15 3.75H13.4783L14.4158 4.73025C14.703 5.02875 14.694 5.5035 14.3948 5.79075C14.2493 5.931 14.0625 6 13.875 6C13.6785 6 13.482 5.92275 13.3342 5.76975L11.6753 4.044C11.1045 3.47325 11.1045 2.52675 11.685 1.9455L13.3342 0.23025C13.6215 -0.06825 14.097 -0.07725 14.3948 0.20925C14.6933 0.4965 14.703 0.97125 14.4158 1.26975L13.473 2.25H15C16.6545 2.25 18 3.5955 18 5.25ZM4.66575 12.2302C4.3785 11.9317 3.90375 11.9235 3.60525 12.21C3.30675 12.4973 3.297 12.972 3.58425 13.2705L4.52175 14.2507H3C2.17275 14.2507 1.5 13.578 1.5 12.7507V11.2508C1.5 10.836 1.164 10.5008 0.75 10.5008C0.336 10.5008 0 10.836 0 11.2508V12.7507C0 14.4052 1.3455 15.7507 3 15.7507H4.52625L3.58425 16.731C3.297 17.0295 3.306 17.5042 3.60525 17.7915C3.75075 17.9317 3.9375 18.0007 4.125 18.0007C4.3215 18.0007 4.518 17.9235 4.66575 17.7705L6.315 16.0545C6.89475 15.474 6.89475 14.5275 6.32475 13.956L4.66575 12.2302ZM9 6C9 7.65675 7.65675 9 6 9H3C1.34325 9 0 7.65675 0 6V3C0 1.34325 1.34325 0 3 0H6C7.65675 0 9 1.34325 9 3V6ZM7.125 2.712C7.125 2.457 6.918 2.25 6.663 2.25H4.97025V1.962C4.97025 1.707 4.76325 1.5 4.50825 1.5H4.4925C4.2375 1.5 4.0305 1.707 4.0305 1.962V2.25H2.337C2.082 2.25 1.875 2.457 1.875 2.712V2.72775C1.875 2.98275 2.082 3.18975 2.337 3.18975H5.481C5.39775 3.912 5.118 4.803 4.50375 5.493C4.29675 5.2605 4.1235 5.007 3.98475 4.743C3.90525 4.5915 3.74625 4.49925 3.576 4.49925C3.228 4.49925 2.99925 4.86825 3.16125 5.1765C3.33 5.499 3.537 5.80875 3.78375 6.0915C3.3795 6.3375 2.892 6.51075 2.301 6.56775C2.061 6.591 1.875 6.7875 1.875 7.02825V7.044C1.875 7.31775 2.112 7.53 2.38425 7.5045C3.24375 7.42425 3.9435 7.14075 4.50825 6.738C5.07 7.13775 5.7615 7.42275 6.61425 7.5045C6.88725 7.53075 7.12425 7.3185 7.12425 7.04475V7.029C7.12425 6.792 6.94425 6.59175 6.708 6.56925C6.114 6.513 5.6265 6.33675 5.22 6.09C5.9625 5.23875 6.33375 4.14675 6.42525 3.1905H6.66225C6.91725 3.1905 7.12425 2.9835 7.12425 2.7285V2.71275L7.125 2.712ZM18 12V15C18 16.6567 16.6567 18 15 18H12C10.3433 18 9 16.6567 9 15V12C9 10.3433 10.3433 9 12 9H15C16.6567 9 18 10.3433 18 12ZM15.603 15.858L14.5807 11.397C14.5005 11.049 14.2785 10.7325 13.9493 10.5945C13.26 10.3057 12.558 10.7108 12.4072 11.3603L11.3475 15.855C11.2695 16.1842 11.52 16.5 11.8582 16.5C12.1012 16.5 12.3128 16.3328 12.369 16.0958L12.5745 15.225H14.3812L14.58 16.0928C14.6348 16.3313 14.847 16.5 15.0915 16.5H15.093C15.4298 16.5 15.6795 16.1865 15.6045 15.858H15.603ZM13.4895 11.55C13.461 11.55 13.4362 11.5695 13.4303 11.5972L12.822 14.175H14.1398L13.5495 11.5972C13.5428 11.5695 13.518 11.55 13.4895 11.55Z" fill="#03AA77"/>
</g>
<defs>
<clipPath id="clip0_94_148">
<rect width="18" height="18" fill="white"/>
</clipPath>
</defs>
</svg>
