<svg width="16" height="16" viewBox="0 0 16 16" fill="none" xmlns="http://www.w3.org/2000/svg">
<circle cx="8" cy="8" r="8" fill="#E6F7F2"/>
<g clip-path="url(#clip0_472_123)">
<path d="M5.877 9.00775L8.2615 10.7562C8.44774 10.8926 8.66811 10.9748 8.89818 10.9936C9.12825 11.0124 9.35904 10.9671 9.56495 10.8628C9.77087 10.7584 9.94387 10.5991 10.0648 10.4025C10.1857 10.2059 10.2498 9.97959 10.25 9.74875L10.25 6.25C10.2504 6.01894 10.1866 5.7923 10.0658 5.59533C9.94499 5.39836 9.77189 5.23878 9.56578 5.13435C9.35966 5.02992 9.1286 4.98473 8.89833 5.00383C8.66806 5.02292 8.4476 5.10554 8.2615 5.2425L5.877 6.991C5.71878 7.10711 5.59012 7.25885 5.50144 7.43392C5.41276 7.609 5.36655 7.80249 5.36655 7.99875C5.36655 8.195 5.41276 8.3885 5.50144 8.56357C5.59012 8.73865 5.71878 8.89039 5.877 9.0065L5.877 9.00775Z" fill="#03AA77"/>
</g>
<defs>
<clipPath id="clip0_472_123">
<rect width="6" height="6" fill="white" transform="translate(11 11) rotate(-180)"/>
</clipPath>
</defs>
</svg>
