<svg width="24" height="24" viewBox="0 0 24 24" fill="none" xmlns="http://www.w3.org/2000/svg">
<circle cx="12" cy="12" r="12" transform="rotate(-180 12 12)" fill="#03AA77"/>
<g clip-path="url(#clip0_89_71)">
<path d="M15.1845 10.4884L11.6078 7.86563C11.3284 7.66106 10.9978 7.53784 10.6527 7.50964C10.3076 7.48144 9.96145 7.54935 9.65258 7.70584C9.3437 7.86233 9.0842 8.1013 8.90282 8.39625C8.72145 8.69121 8.62529 9.03062 8.62501 9.37688L8.625 14.625C8.62447 14.9716 8.72012 15.3115 8.90132 15.607C9.08253 15.9025 9.34216 16.1418 9.65134 16.2985C9.96052 16.4551 10.3071 16.5229 10.6525 16.4943C10.9979 16.4656 11.3286 16.3417 11.6078 16.1363L15.1845 13.5135C15.4218 13.3393 15.6148 13.1117 15.7478 12.8491C15.8809 12.5865 15.9502 12.2963 15.9502 12.0019C15.9502 11.7075 15.8809 11.4173 15.7478 11.1546C15.6148 10.892 15.4218 10.6644 15.1845 10.4903L15.1845 10.4884Z" fill="#E4F5F0"/>
</g>
<defs>
<clipPath id="clip0_89_71">
<rect width="9" height="9" fill="white" transform="translate(7.5 7.50001)"/>
</clipPath>
</defs>
</svg>
