<svg width="24" height="24" viewBox="0 0 24 24" fill="none" xmlns="http://www.w3.org/2000/svg">
<g clip-path="url(#clip0_101_29)">
<path d="M24 2.99913V20.6101L12 24.0391L0 20.6101V3.99913C0 3.04913 0.435 2.17613 1.194 1.60413C1.443 1.41613 1.717 1.28813 2 1.18613V19.1021L12 21.9591L22 19.1021V0.186125C22.283 0.288125 22.558 0.416125 22.806 0.604125C23.565 1.17613 24 2.04913 24 2.99913ZM13 3.37013V17.6331L12 17.9191L11 17.6331V3.37013C11 2.03813 10.105 0.851125 8.749 0.467125L7.08 0.0681252C5.509 -0.306875 4 0.885125 4 2.50013V17.7131L12 19.9991L20 17.7131V2.53413C20 0.937125 18.523 -0.250875 16.963 0.0921252L15.175 0.485125C13.894 0.851125 12.999 2.03813 12.999 3.37013H13Z" fill="#B2B2B2"/>
</g>
<defs>
<clipPath id="clip0_101_29">
<rect width="24" height="24" fill="white"/>
</clipPath>
</defs>
</svg>
