<svg width="24" height="24" viewBox="0 0 24 24" fill="none" xmlns="http://www.w3.org/2000/svg">
<path d="M3.99963 12C4.55192 12 4.99963 12.4477 4.99963 13C4.99963 15.6887 7.12217 17.8814 9.78284 17.9951L9.99963 18L17.5846 18L16.2926 16.707C15.9321 16.3466 15.9046 15.779 16.2096 15.3867L16.2926 15.293C16.6531 14.9325 17.2206 14.905 17.6129 15.21L17.7067 15.293L20.7067 18.293C20.7753 18.3616 20.8321 18.4376 20.8766 18.5186C20.8981 18.5576 20.916 18.5986 20.9323 18.6406C20.9495 18.6854 20.9637 18.731 20.9742 18.7773C20.9784 18.7957 20.9818 18.8143 20.985 18.833C20.9872 18.8463 20.9891 18.8597 20.9908 18.873C20.9925 18.886 20.9936 18.899 20.9948 18.9121C20.9991 18.9622 20.9998 19.0123 20.9967 19.0625C20.9957 19.0786 20.9945 19.0945 20.9928 19.1104C20.988 19.1541 20.9799 19.1973 20.9694 19.2402C20.9516 19.3122 20.9275 19.3814 20.8951 19.4463L20.8893 19.458C20.8693 19.4968 20.8454 19.5338 20.8199 19.5703C20.8125 19.5811 20.8054 19.5921 20.7975 19.6025C20.7949 19.6059 20.7932 19.6099 20.7906 19.6133L20.7711 19.6338C20.7566 19.6515 20.7419 19.6689 20.7262 19.6855L20.7067 19.707L17.7067 22.707C17.3161 23.0975 16.6831 23.0975 16.2926 22.707C15.9321 22.3465 15.9045 21.779 16.2096 21.3867L16.2926 21.293L17.5846 20L9.99963 20C6.13381 19.9998 2.99963 16.8659 2.99963 13C2.99963 12.4478 3.44752 12.0002 3.99963 12ZM6.2926 1.29297C6.68313 0.902444 7.31614 0.902444 7.70667 1.29297C8.06715 1.65345 8.0947 2.22099 7.78967 2.61328L7.70667 2.70703L6.4137 4L13.9996 4C17.8656 4 20.9996 7.13401 20.9996 11C20.9996 11.5523 20.5519 12 19.9996 12C19.4475 11.9998 18.9996 11.5522 18.9996 11C18.9996 8.31124 16.8772 6.11845 14.2164 6.00488L13.9996 6L6.4137 6L7.70667 7.29297C8.06715 7.65345 8.0947 8.22099 7.78967 8.61328L7.70667 8.70703C7.34618 9.06752 6.77864 9.09506 6.38635 8.79004L6.2926 8.70703L3.2926 5.70703C3.19917 5.6136 3.12844 5.50617 3.07971 5.3916C3.07644 5.38393 3.074 5.37593 3.07092 5.36816C3.06358 5.34962 3.05563 5.33137 3.04944 5.3125C3.04479 5.29835 3.04077 5.28395 3.03674 5.26953C3.03115 5.24949 3.02641 5.22928 3.02209 5.20898C3.02072 5.2025 3.01944 5.19599 3.01819 5.18945C3.00703 5.13138 3.00141 5.0726 3.00061 5.01367C3.00055 5.00912 2.99963 5.00457 2.99963 5V4.9707C3.00089 4.92756 3.00552 4.88452 3.01233 4.8418C3.01899 4.79989 3.02798 4.75875 3.03967 4.71875C3.05738 4.6581 3.08153 4.59906 3.11096 4.54199L3.14807 4.47559C3.14921 4.47374 3.14985 4.47157 3.151 4.46973C3.16876 4.44137 3.18872 4.41356 3.20959 4.38672L3.23108 4.36133C3.24465 4.34501 3.25948 4.32987 3.27405 4.31445L3.2926 4.29297L6.2926 1.29297Z" fill="#434343"/>
</svg>
