<svg width="23" height="23" viewBox="0 0 23 23" fill="none" xmlns="http://www.w3.org/2000/svg">
<path d="M20.2026 11.5C20.2023 10.9713 20.1538 10.4436 20.0576 9.92354L23 8.24167L20.0991 3.25833L17.1557 4.94404C16.343 4.25493 15.4092 3.72019 14.4009 3.36662V0L8.59913 0V3.36662C7.59085 3.72019 6.65696 4.25493 5.84428 4.94404L2.90087 3.25833L0 8.24167L2.94245 9.92354C2.74916 10.9658 2.74916 12.0342 2.94245 13.0765L0 14.7583L2.90087 19.7417L5.84428 18.0569C6.65704 18.7457 7.59092 19.2801 8.59913 19.6334L8.59913 23H14.4009L14.4009 19.6334C15.4092 19.2798 16.343 18.7451 17.1557 18.056L20.0991 19.7417L23 14.7583L20.0576 13.0765C20.1538 12.5564 20.2023 12.0287 20.2026 11.5ZM14.4009 11.5C14.4009 12.0686 14.2307 12.6245 13.912 13.0973C13.5932 13.5701 13.1402 13.9386 12.6101 14.1562C12.08 14.3738 11.4968 14.4307 10.9341 14.3198C10.3714 14.2088 9.85447 13.935 9.44878 13.5329C9.04308 13.1309 8.7668 12.6186 8.65487 12.0609C8.54294 11.5032 8.60039 10.9251 8.81995 10.3998C9.03951 9.87445 9.41132 9.42543 9.88836 9.10952C10.3654 8.79362 10.9263 8.625 11.5 8.625C12.2694 8.625 13.0072 8.9279 13.5512 9.46707C14.0952 10.0062 14.4009 10.7375 14.4009 11.5Z" fill="#434343"/>
</svg>
