<svg width="23" height="23" viewBox="0 0 23 23" fill="none" xmlns="http://www.w3.org/2000/svg">
<g clip-path="url(#clip0_162_188)">
<path d="M1.27171 11.8833L4.68338 14.375L3.38771 18.3875C3.17833 19.0099 3.17567 19.6832 3.38015 20.3072C3.58462 20.9311 3.98528 21.4723 4.52238 21.85C5.05028 22.2398 5.69 22.4487 6.34623 22.4454C7.00246 22.4421 7.64007 22.2269 8.16404 21.8318L11.5 19.3765L14.8369 21.8289C15.3639 22.2165 16.0001 22.427 16.6543 22.4302C17.3084 22.4334 17.9467 22.2291 18.4774 21.8467C19.0081 21.4642 19.4039 20.9233 19.6078 20.3018C19.8117 19.6802 19.8133 19.01 19.6123 18.3875L18.3166 14.375L21.7283 11.8833C22.2546 11.4986 22.6458 10.9573 22.846 10.337C23.0463 9.71657 23.0454 9.04876 22.8435 8.42891C22.6415 7.80906 22.2489 7.26888 21.7216 6.88553C21.1943 6.50218 20.5594 6.29526 19.9075 6.29433H15.7167L14.445 2.33066C14.245 1.70675 13.852 1.16247 13.3227 0.776309C12.7934 0.39015 12.1552 0.182068 11.5 0.182068C10.8448 0.182068 10.2066 0.39015 9.67728 0.776309C9.14799 1.16247 8.75503 1.70675 8.55504 2.33066L7.28334 6.29433H3.09638C2.44446 6.29526 1.80952 6.50218 1.28223 6.88553C0.754946 7.26888 0.362291 7.80906 0.160351 8.42891C-0.0415879 9.04876 -0.0424817 9.71657 0.157798 10.337C0.358077 10.9573 0.749285 11.4986 1.27554 11.8833H1.27171Z" fill="#03AA77"/>
</g>
<defs>
<clipPath id="clip0_162_188">
<rect width="23" height="23" fill="white"/>
</clipPath>
</defs>
</svg>
