<svg width="19" height="10" viewBox="0 0 19 10" fill="none" xmlns="http://www.w3.org/2000/svg">
<path d="M18.3033 3.32959L15.2396 0.234174C15.166 0.159972 15.0784 0.101076 14.982 0.0608845C14.8855 0.0206926 14.782 0 14.6775 0C14.573 0 14.4695 0.0206926 14.373 0.0608845C14.2766 0.101076 14.189 0.159972 14.1154 0.234174C13.968 0.382502 13.8852 0.583152 13.8852 0.792299C13.8852 1.00145 13.968 1.2021 14.1154 1.35042L16.9337 4.19251H0.791667C0.581704 4.19251 0.38034 4.27592 0.231874 4.42438C0.0834075 4.57285 0 4.77421 0 4.98417C0 5.19414 0.0834075 5.3955 0.231874 5.54397C0.38034 5.69243 0.581704 5.77584 0.791667 5.77584H16.9812L14.1154 8.63376C14.0412 8.70735 13.9823 8.79491 13.9421 8.89138C13.9019 8.98786 13.8812 9.09133 13.8812 9.19584C13.8812 9.30035 13.9019 9.40383 13.9421 9.5003C13.9823 9.59677 14.0412 9.68433 14.1154 9.75793C14.189 9.83213 14.2766 9.89102 14.373 9.93121C14.4695 9.97141 14.573 9.9921 14.6775 9.9921C14.782 9.9921 14.8855 9.97141 14.982 9.93121C15.0784 9.89102 15.166 9.83213 15.2396 9.75793L18.3033 6.68626C18.7481 6.24094 18.9979 5.6373 18.9979 5.00792C18.9979 4.37855 18.7481 3.7749 18.3033 3.32959Z" fill="#03AA77"/>
</svg>
